<svg width="21" height="19" viewBox="0 0 21 19" fill="none" xmlns="http://www.w3.org/2000/svg">
<path d="M2.21499 18.8726C2.68901 18.2714 3.21224 17.7019 3.62313 17.0615C4.02759 16.4308 4.31863 15.7281 4.66639 15.0434C4.11212 14.6715 3.61671 14.3661 3.15125 14.0227C0.478369 12.0532 -0.64621 8.83582 0.370298 6.05799C1.17067 3.86869 2.72753 2.31441 4.81512 1.36241C9.31451 -0.689535 13.7048 -0.479269 17.8179 2.37253C20.5025 4.23322 21.6314 7.48653 20.6513 10.2686C19.8573 12.5234 18.2288 14.0386 16.1155 15.0878C13.8877 16.1941 11.5166 16.5037 9.05235 16.2987C8.7795 16.2754 8.44887 16.3409 8.22096 16.4836C6.58277 17.499 4.82368 18.245 2.99824 18.8514C2.77033 18.9275 2.5253 18.9518 2.28775 18.9994C2.26421 18.9571 2.2396 18.9148 2.21606 18.8726H2.21499Z" fill="#191600"/>
</svg>
